{"accessors" : [{"bufferView" : 0, "byteOffset" : 0, "componentType" : 5123, "count" : 4338, "type" : "SCALAR", "max" : [1077], "min" : [0]}, {"bufferView" : 1, "byteOffset" : 0, "componentType" : 5126, "count" : 1078, "type" : "VEC3", "max" : [32.547000885009766, 31.11210060119629, 6.589240074157715], "min" : [-32.547000885009766, -31.11210060119629, -6.589240074157715], "name" : "POSITION"}, {"bufferView" : 1, "byteOffset" : 12, "componentType" : 5126, "count" : 1078, "type" : "VEC3", "max" : [0, 1, 0], "min" : [0, 1, 0], "name" : "NORMAL"}, {"bufferView" : 1, "byteOffset" : 24, "componentType" : 5126, "count" : 1078, "type" : "VEC2", "max" : [0, 1], "min" : [0, 1], "name" : "TEXCOORD_0"}], "asset" : {"generator" : "Aspose.3D 25.11.0", "version" : "2.0"}, "buffers" : [{"uri" : "data:application/octet-stream;base64,", "byteLength" : 43180}], "bufferViews" : [{"buffer" : 0, "byteOffset" : 0, "byteLength" : 8676, "target" : 34963}, {"buffer" : 0, "byteOffset" : 8680, "byteLength" : 34496, "byteStride" : 32, "target" : 34962}], "images" : [{"uri" : "../Downloads/shine.png"}, {"uri" : "../Downloads/texture.jpg"}], "materials" : [{"name" : "Mat", "pbrMetallicRoughness" : {"baseColorFactor" : [1, 1, 1, 1], "baseColorTexture" : {"index" : 1, "texCoord" : 0}, "metallicFactor" : 1, "roughnessFactor" : 1}, "emissiveTexture" : {"index" : 0, "texCoord" : 0}, "emissiveFactor" : [0, 0, 0], "alphaMode" : "OPAQUE", "doubleSided" : false}], "meshes" : [{"primitives" : [{"attributes" : {"POSITION" : 1, "NORMAL" : 2, "TEXCOORD_0" : 3}, "indices" : 0, "material" : 0, "mode" : 4}], "name" : ""}], "nodes" : [{"matrix" : [0.1, 0, 0, 0, 0, 0.1, 0, 0, 0, 0, 0.1, 0, 0, 0, 0, 1], "mesh" : 0, "name" : "star"}], "samplers" : [{"magFilter" : 9729, "minFilter" : 9985, "wrapS" : 33071, "wrapT" : 33071}, {"magFilter" : 9729, "minFilter" : 9729, "wrapS" : 33648, "wrapT" : 33648}], "scene" : 0, "scenes" : [{"nodes" : [0]}], "textures" : [{"sampler" : 0, "source" : 0, "name" : ""}, {"sampler" : 1, "source" : 1, "name" : ""}]}